<svg width="60" height="60" viewBox="0 0 60 60" xmlns="http://www.w3.org/2000/svg"><title>Hugo Davoust</title><g fill="none"><circle fill="#02CF6C" cx="30" cy="30" r="30"/><g fill="#fff"><path d="M44.416 42.094c-1.101 1.05-2.138 1.574-3.11 1.574-1.562 0-2.47-.973-2.726-2.918-.742.998-1.626 1.779-2.65 2.342-1.024.563-1.997.819-2.918.768-1.024-.051-1.92-.474-2.688-1.267-.845-.87-1.267-2.01-1.267-3.418 0-.563.077-1.165.23-1.805.486-1.946 1.498-3.533 3.034-4.762 1.357-1.05 2.739-1.574 4.147-1.574 1.229 0 2.253.525 3.072 1.574.486-2.739 1.178-6.362 2.074-10.867.051-.23.102-.384.154-.461.051-.077.186-.16.403-.25.218-.09.582-.16 1.094-.211.666-.051 1.101.013 1.306.192.128.102.154.397.077.883-.384 1.818-1.062 5.248-2.035 10.291-.922 4.941-1.382 7.962-1.382 9.062 0 .922.23 1.382.691 1.382.486 0 1.165-.448 2.035-1.344.64-.666 1.152-1.434 1.536-2.304.077-.179.205-.269.384-.269.23 0 .346.128.346.384 0 .307-.23.813-.691 1.517-.461.704-.832 1.197-1.114 1.478zm-5.184-7.334c-.307-1.766-1.139-2.65-2.496-2.65-1.715 0-3.034 1.779-3.955 5.338-.256.998-.384 1.894-.384 2.688 0 1.587.422 2.47 1.267 2.65 1.152.23 2.432-.499 3.84-2.189.461-.538.858-1.242 1.19-2.112.128-.794.307-2.035.538-3.725z"/><path d="M28.193 42.598c-1.023.821-1.994 1.231-2.915 1.231-.92 0-1.643-.372-2.167-1.115-.524-.744-.722-1.577-.594-2.5.179-1.59.678-3.744 1.496-6.462.102-.333.153-.603.153-.808 0-.487-.243-.731-.729-.731-.716 0-2.058 1.564-4.027 4.692-.639 1.026-1.611 3-2.915 5.923-.128.333-.55.513-1.266.538-.588.051-.946.064-1.074.038-.332-.051-.499-.244-.499-.577 0-.641.179-2.308.537-5 .46-3.41.997-6.5 1.611-9.269 1.79-8.18 4.142-12.269 7.057-12.269 1.815 0 2.723.987 2.723 2.962 0 1.795-.716 3.987-2.148 6.577-1.534 2.821-3.528 5.846-5.983 9.077-.23 1.41-.422 2.731-.575 3.962 0 .128.013.244.038.346.051-.026.115-.115.192-.269.486-.974 1.317-2.295 2.493-3.962.869-1.231 1.509-2.064 1.918-2.5.869-.923 1.675-1.385 2.416-1.385.179 0 .358.026.537.077 1.56.462 2.276 1.731 2.148 3.808-.128 1.872-.499 3.628-1.112 5.269-.256.641-.384 1.18-.384 1.615 0 .487.205.731.614.731.869 0 1.726-.5 2.57-1.5.588-.692 1.023-1.385 1.304-2.077.102-.256.281-.385.537-.385s.384.154.384.462c0 .487-.294 1.128-.882 1.923-.486.667-.972 1.192-1.457 1.577zm-4.919-25.133c-1.139-.076-2.097 1.007-2.874 3.251-.362 1.071-.984 3.748-1.864 8.031-.233 1.147-.453 2.307-.66 3.48 1.709-2.014 3.21-4.181 4.505-6.501 1.45-2.626 2.175-4.755 2.175-6.387 0-1.198-.427-1.823-1.282-1.874z"/></g></g></svg>
